<svg xmlns="http://www.w3.org/2000/svg" xmlns:xlink="http://www.w3.org/1999/xlink" width="50" zoomAndPan="magnify" viewBox="0 0 375 374.999991" height="50" preserveAspectRatio="xMidYMid meet" version="1.0"><defs><clipPath id="388642a8b6"><path d="M 34.921875 126 L 50 126 L 50 140 L 34.921875 140 Z M 34.921875 126 " clip-rule="nonzero"/></clipPath><clipPath id="4338e0cd48"><path d="M 321 130 L 340.171875 130 L 340.171875 143 L 321 143 Z M 321 130 " clip-rule="nonzero"/></clipPath></defs><path fill="#ffffff" d="M 177.847656 15.453125 C 177.847656 8.863281 183.765625 4.742188 187.507812 0.101562 C 191.328125 4.667969 196.796875 9.011719 197.097656 15.453125 C 197.695312 22.339844 191.328125 26.609375 187.433594 31.402344 C 183.613281 26.609375 177.320312 22.339844 177.847656 15.453125 Z M 177.847656 15.453125 " fill-opacity="1" fill-rule="nonzero"/><path fill="#ffffff" d="M 131.777344 32.824219 C 130.730469 22.492188 139.195312 15.226562 145.035156 7.964844 C 152.078125 14.253906 161.589844 20.167969 162.265625 30.578125 C 163.390625 41.136719 154.773438 48.550781 148.78125 55.964844 C 141.816406 49.449219 132.078125 43.382812 131.777344 32.824219 Z M 131.777344 32.824219 " fill-opacity="1" fill-rule="nonzero"/><path fill="#ffffff" d="M 212.527344 30.355469 C 213.351562 20.019531 222.792969 14.105469 229.90625 7.964844 C 235.75 15.152344 244.441406 22.339844 243.089844 32.675781 C 242.941406 43.234375 233.054688 49.300781 226.160156 55.738281 C 219.945312 48.476562 211.253906 41.0625 212.527344 30.355469 Z M 212.527344 30.355469 " fill-opacity="1" fill-rule="nonzero"/><path fill="#ffffff" d="M 105.785156 21.515625 C 109.753906 23.015625 114.699219 23.765625 117.097656 27.734375 C 118.519531 32 117.171875 36.570312 117.019531 40.988281 C 112.226562 40.6875 107.882812 38.742188 103.914062 36.269531 C 104.363281 31.328125 104.960938 26.386719 105.785156 21.515625 Z M 105.785156 21.515625 " fill-opacity="1" fill-rule="nonzero"/><path fill="#ffffff" d="M 257.847656 27.65625 C 260.320312 24.363281 264.441406 22.867188 267.8125 20.617188 C 269.683594 25.488281 270.808594 30.652344 271.105469 35.96875 C 267.136719 38.441406 262.792969 40.386719 258.148438 41.363281 C 257.847656 36.867188 256.351562 32.078125 257.847656 27.65625 Z M 257.847656 27.65625 " fill-opacity="1" fill-rule="nonzero"/><path fill="#ffffff" d="M 76.644531 59.109375 C 78.667969 53.941406 82.9375 50.199219 86.308594 46.003906 C 90.878906 50.796875 97.695312 55.441406 96.722656 63.078125 C 96.871094 69.96875 90.429688 73.9375 86.382812 78.503906 C 81.664062 73.113281 74.472656 67.273438 76.644531 59.109375 Z M 76.644531 59.109375 " fill-opacity="1" fill-rule="nonzero"/><path fill="#ffffff" d="M 277.699219 62.855469 C 277.472656 55.515625 283.992188 50.722656 288.558594 45.929688 C 292.679688 51.472656 299.945312 56.714844 298.449219 64.578125 C 297.101562 70.34375 292.007812 74.160156 288.335938 78.578125 C 284.066406 73.9375 278.074219 69.742188 277.699219 62.855469 Z M 277.699219 62.855469 " fill-opacity="1" fill-rule="nonzero"/><path fill="#ffffff" d="M 117.097656 62.554688 C 128.257812 68.171875 141.890625 74.984375 144.0625 88.6875 C 147.207031 101.71875 137.769531 112.578125 131.253906 122.6875 C 120.242188 116.320312 105.933594 109.730469 104.585938 95.355469 C 101.890625 82.625 111.179688 72.589844 117.097656 62.554688 Z M 117.097656 62.554688 " fill-opacity="1" fill-rule="nonzero"/><path fill="#ffffff" d="M 230.730469 88.390625 C 233.054688 74.6875 246.761719 68.394531 257.699219 62.480469 C 261.59375 68.996094 266.3125 75.136719 269.234375 82.25 C 272.679688 92.207031 269.90625 104.265625 261.667969 111.078125 C 256.125 115.648438 249.757812 119.09375 243.617188 122.761719 C 237.25 112.503906 227.285156 101.570312 230.730469 88.390625 Z M 230.730469 88.390625 " fill-opacity="1" fill-rule="nonzero"/><path fill="#ffffff" d="M 53.949219 65.398438 C 57.769531 65.699219 61.589844 66.148438 65.410156 66.523438 C 66.382812 70.792969 67.355469 74.984375 68.179688 79.328125 C 63.6875 78.804688 59.265625 78.054688 54.847656 76.933594 C 54.472656 73.039062 54.171875 69.21875 53.949219 65.398438 Z M 53.949219 65.398438 " fill-opacity="1" fill-rule="nonzero"/><path fill="#ffffff" d="M 51.402344 91.234375 C 60.765625 91.386719 72 93.855469 76.121094 103.292969 C 81.214844 111.527344 76.570312 121.113281 74.097656 129.351562 C 66.082031 126.429688 56.046875 125.382812 51.101562 117.445312 C 45.933594 109.433594 49.753906 99.699219 51.402344 91.234375 Z M 51.402344 91.234375 " fill-opacity="1" fill-rule="nonzero"/><path fill="#ffffff" d="M 298.597656 103.066406 C 302.941406 94.082031 313.730469 92.65625 322.195312 89.738281 C 324.742188 98.347656 329.460938 108.457031 323.992188 116.921875 C 319.421875 125.457031 308.933594 126.429688 300.695312 129.425781 C 298.296875 121.039062 293.652344 111.378906 298.597656 103.066406 Z M 298.597656 103.066406 " fill-opacity="1" fill-rule="nonzero"/><path fill="#ffffff" d="M 89.605469 126.65625 C 86.90625 120.964844 91.101562 115.574219 93.574219 110.707031 C 97.769531 114.300781 104.960938 116.769531 104.960938 123.359375 C 104.363281 127.554688 102.113281 131.222656 100.464844 135.117188 C 96.722656 132.570312 92 130.699219 89.605469 126.65625 Z M 89.605469 126.65625 " fill-opacity="1" fill-rule="nonzero"/><path fill="#ffffff" d="M 269.984375 123.210938 C 269.757812 116.769531 276.800781 114.148438 280.917969 110.554688 C 283.242188 115.046875 287.363281 119.765625 285.640625 125.160156 C 284.140625 130.398438 278.296875 132.199219 274.253906 135.042969 C 272.753906 131.222656 270.207031 127.480469 269.984375 123.210938 Z M 269.984375 123.210938 " fill-opacity="1" fill-rule="nonzero"/><g clip-path="url(#388642a8b6)"><path fill="#ffffff" d="M 34.921875 126.355469 C 38.367188 127.40625 42.488281 127.105469 45.410156 129.425781 C 48.332031 132.121094 48.703125 136.390625 49.828125 139.984375 C 45.109375 139.460938 40.464844 138.5625 35.96875 137.066406 C 35.519531 133.46875 35.222656 129.875 34.921875 126.355469 Z M 34.921875 126.355469 " fill-opacity="1" fill-rule="nonzero"/></g><path fill="#ffffff" d="M 151.105469 127.328125 C 159.792969 131.75 170.207031 136.464844 172.976562 146.875 C 176.347656 157.433594 168.484375 166.570312 163.839844 175.257812 C 155.375 170.539062 145.035156 166.121094 142.113281 156.011719 C 138.21875 145.378906 146.460938 136.167969 151.105469 127.328125 Z M 151.105469 127.328125 " fill-opacity="1" fill-rule="nonzero"/><path fill="#ffffff" d="M 201.742188 147.324219 C 204.0625 136.617188 215 131.824219 223.765625 127.40625 C 228.785156 136.390625 237.097656 146.425781 232.304688 157.285156 C 229.082031 166.792969 219.195312 170.761719 211.03125 175.179688 C 206.085938 166.71875 198.894531 157.808594 201.742188 147.324219 Z M 201.742188 147.324219 " fill-opacity="1" fill-rule="nonzero"/><g clip-path="url(#4338e0cd48)"><path fill="#ffffff" d="M 321.296875 141.332031 C 323.617188 136.617188 326.988281 132.648438 331.933594 130.625 C 334.628906 131.824219 337.398438 132.945312 340.171875 134.144531 C 338.375 136.839844 336.5 139.535156 334.703125 142.230469 C 330.210938 142.007812 325.714844 141.707031 321.296875 141.332031 Z M 321.296875 141.332031 " fill-opacity="1" fill-rule="nonzero"/></g><path fill="#ffffff" d="M 303.839844 81.574219 C 305.191406 76.558594 307.738281 71.914062 312.15625 68.996094 C 315.078125 69.59375 318 70.191406 320.921875 70.792969 C 319.648438 73.789062 318.375 76.78125 317.101562 79.777344 C 312.679688 80.527344 308.261719 81.125 303.839844 81.574219 Z M 303.839844 81.574219 " fill-opacity="1" fill-rule="nonzero"/><path fill="#ffffff" d="M 41.8125 151.816406 C 51.25 155.335938 62.5625 158.40625 66.683594 168.667969 C 71.703125 177.054688 68.628906 186.9375 67.058594 195.851562 C 58.441406 192.328125 47.957031 189.933594 43.160156 181.023438 C 37.394531 172.335938 40.015625 161.402344 41.8125 151.816406 Z M 41.8125 151.816406 " fill-opacity="1" fill-rule="nonzero"/><path fill="#ffffff" d="M 306.539062 168.667969 C 311.632812 160.203125 321.667969 157.359375 330.359375 154.140625 C 331.707031 163.199219 334.929688 173.085938 329.835938 181.621094 C 325.640625 191.730469 314.179688 194.277344 305.191406 198.246094 C 303.242188 188.585938 300.320312 177.429688 306.539062 168.667969 Z M 306.539062 168.667969 " fill-opacity="1" fill-rule="nonzero"/><path fill="#ffffff" d="M 281.519531 208.503906 C 284.964844 205.734375 289.535156 205.136719 293.652344 203.789062 C 293.804688 209.03125 296.5 215.171875 292.828125 219.738281 C 289.832031 224.007812 284.140625 223.78125 279.644531 225.203125 C 279.570312 219.8125 276.726562 212.773438 281.519531 208.503906 Z M 281.519531 208.503906 " fill-opacity="1" fill-rule="nonzero"/><path fill="#ffffff" d="M 75.445312 209.179688 C 80.617188 210.453125 85.484375 212.472656 89.828125 215.542969 C 89.605469 220.636719 89.304688 225.730469 88.78125 230.746094 C 84.285156 229.023438 78.21875 229.097656 75.523438 224.457031 C 72.601562 219.8125 74.921875 214.121094 75.445312 209.179688 Z M 75.445312 209.179688 " fill-opacity="1" fill-rule="nonzero"/><path fill="#ffffff" d="M 115.371094 149.121094 C 115.898438 146.875 115.222656 145.003906 114.097656 143.355469 C 112.078125 140.433594 107.730469 140.507812 105.933594 143.503906 C 105.261719 144.628906 104.734375 145.902344 104.585938 147.324219 C 103.238281 157.808594 104.8125 168.367188 107.132812 178.550781 C 111.179688 169.191406 114.25 159.230469 115.371094 149.121094 Z M 115.371094 149.121094 " fill-opacity="1" fill-rule="nonzero"/><path fill="#ffffff" d="M 259.496094 149.195312 C 259.71875 147.398438 259.195312 145.828125 258.445312 144.328125 C 256.5 140.734375 251.40625 140.660156 249.457031 144.253906 C 248.933594 145.152344 248.632812 146.125 248.710938 147.25 C 248.859375 158.03125 252.605469 168.367188 256.800781 178.175781 C 257.847656 168.667969 259.644531 158.929688 259.496094 149.195312 Z M 259.496094 149.195312 " fill-opacity="1" fill-rule="nonzero"/><path fill="#ffffff" d="M 168.183594 250.589844 C 168.933594 240.332031 173.128906 230.746094 178.222656 221.910156 C 165.410156 203.5625 147.808594 188.585938 128.632812 177.351562 C 128.707031 182.519531 127.882812 188.210938 131.179688 192.703125 C 137.097656 202.289062 145.410156 210.003906 152.003906 219.0625 C 149.605469 221.386719 147.058594 225.804688 143.015625 223.855469 C 130.953125 218.089844 120.464844 209.03125 111.851562 198.84375 C 101.367188 186.191406 99.867188 169.265625 97.996094 153.6875 C 97.917969 148.074219 89.679688 143.65625 86.832031 149.945312 C 83.761719 162.527344 87.28125 175.628906 88.707031 188.285156 C 91.027344 207.308594 100.617188 224.605469 113.050781 238.832031 C 127.582031 255.308594 144.289062 269.613281 159.71875 285.261719 C 164.0625 274.03125 167.359375 262.496094 168.183594 250.589844 Z M 168.183594 250.589844 " fill-opacity="1" fill-rule="nonzero"/><path fill="#ffffff" d="M 276.199219 175.179688 C 274.328125 190.980469 272.378906 207.457031 264.441406 221.609375 C 250.65625 246.546875 227.886719 264.371094 208.109375 284.140625 C 202.417969 289.90625 194.851562 294.847656 193.050781 303.234375 C 187.058594 325.550781 181.367188 348.316406 180.019531 371.453125 L 180.019531 374.074219 L 176.574219 374.074219 C 162.640625 374.898438 148.707031 374 134.773438 374.375 C 135.449219 372.429688 136.121094 370.480469 136.796875 368.535156 C 146.160156 336.859375 160.019531 306.679688 170.953125 275.527344 C 176.496094 261.375 173.800781 245.199219 181.441406 231.71875 C 190.730469 212.921875 207.882812 200.117188 223.839844 187.386719 C 227.0625 184.917969 230.730469 183.269531 234.253906 181.472656 C 236.273438 199.445312 219.121094 209.851562 210.507812 223.257812 C 213.203125 225.953125 216.574219 230.519531 220.84375 227.375 C 238.070312 217.640625 255 203.488281 260.394531 183.644531 C 263.316406 174.507812 262.566406 164.699219 265.1875 155.5625 C 266.761719 150.542969 273.277344 148.820312 275.976562 153.988281 C 277.625 161.027344 276.800781 168.21875 276.199219 175.179688 Z M 276.199219 175.179688 " fill-opacity="1" fill-rule="nonzero"/><path fill="#ffffff" d="M 119.941406 200.941406 C 123.089844 186.113281 131.027344 171.289062 127.734375 155.859375 C 126.535156 155.335938 124.136719 154.214844 122.863281 153.6875 C 118.894531 164.773438 114.921875 175.929688 110.277344 186.789062 C 113.277344 191.65625 116.496094 196.375 119.941406 200.941406 Z M 119.941406 200.941406 " fill-opacity="1" fill-rule="nonzero"/><path fill="#ffffff" d="M 246.085938 201.089844 C 249.082031 195.699219 253.726562 190.457031 254.101562 184.167969 C 250.957031 173.308594 246.6875 162.675781 241.894531 152.339844 C 239.570312 156.683594 235.675781 161.253906 237.398438 166.570312 C 239.496094 178.25 243.242188 189.558594 246.085938 201.089844 Z M 246.085938 201.089844 " fill-opacity="1" fill-rule="nonzero"/><path fill="#ffffff" d="M 202.265625 298.964844 C 194.851562 322.253906 190.355469 346.367188 187.058594 370.480469 C 186.910156 371.453125 186.609375 373.402344 186.460938 374.449219 C 201.21875 374.375 216.050781 374.449219 230.804688 374.375 C 230.355469 372.429688 229.90625 370.480469 229.382812 368.609375 C 223.242188 344.421875 212.304688 321.804688 202.265625 298.964844 Z M 202.265625 298.964844 " fill-opacity="1" fill-rule="nonzero"/><path fill="#ffffff" d="M 161.214844 82.847656 C 161.292969 64.949219 177.320312 53.644531 187.585938 40.988281 C 198.070312 53.492188 212.902344 65.25 213.800781 82.847656 C 215.375 101.570312 197.996094 113.25 187.507812 126.28125 C 176.949219 113.328125 159.867188 101.644531 161.214844 82.847656 Z M 161.214844 82.847656 " fill-opacity="1" fill-rule="nonzero"/></svg>